<svg width="400" height="400" viewBox="0 0 400 400" xmlns="http://www.w3.org/2000/svg">
  <!-- Sandália elegante com strass -->
  <defs>
    <linearGradient id="heel" x1="0%" y1="0%" x2="100%" y2="100%">
      <stop offset="0%" style="stop-color:#2a2a2a;stop-opacity:1" />
      <stop offset="100%" style="stop-color:#1a1a1a;stop-opacity:1" />
    </linearGradient>
    <linearGradient id="strap" x1="0%" y1="0%" x2="100%" y2="100%">
      <stop offset="0%" style="stop-color:#3a3a3a;stop-opacity:1" />
      <stop offset="100%" style="stop-color:#2a2a2a;stop-opacity:1" />
    </linearGradient>
    <radialGradient id="strass" cx="50%" cy="50%" r="50%">
      <stop offset="0%" style="stop-color:#ffffff;stop-opacity:0.9" />
      <stop offset="50%" style="stop-color:#e0e0e0;stop-opacity:0.7" />
      <stop offset="100%" style="stop-color:#c0c0c0;stop-opacity:0.5" />
    </radialGradient>
  </defs>
  
  <!-- Sombra da sandália -->
  <ellipse cx="200" cy="350" rx="120" ry="20" fill="#000000" opacity="0.1"/>
  
  <!-- Salto -->
  <path d="M 160 280 L 180 320 L 190 320 L 170 280 Z" fill="url(#heel)" stroke="#1a1a1a" stroke-width="1"/>
  
  <!-- Sola -->
  <path d="M 120 280 Q 120 270 140 270 L 260 270 Q 280 270 280 280 L 280 290 Q 280 300 260 300 L 140 300 Q 120 300 120 290 Z" fill="#2a2a2a" stroke="#1a1a1a" stroke-width="2"/>
  
  <!-- Tira do tornozelo -->
  <path d="M 160 200 Q 180 190 200 200 Q 220 190 240 200 L 245 210 Q 225 220 200 210 Q 175 220 155 210 Z" fill="url(#strap)" stroke="#1a1a1a" stroke-width="1"/>
  
  <!-- Fivela -->
  <rect x="240" y="195" width="12" height="8" fill="#4a4a4a" stroke="#2a2a2a" stroke-width="1" rx="1"/>
  <rect x="242" y="197" width="8" height="4" fill="none" stroke="#6a6a6a" stroke-width="1" rx="1"/>
  
  <!-- Tira principal com strass -->
  <path d="M 140 250 Q 200 240 260 250 L 265 260 Q 200 250 135 260 Z" fill="url(#strap)" stroke="#1a1a1a" stroke-width="1"/>
  
  <!-- Strass na tira principal -->
  <circle cx="160" cy="255" r="3" fill="url(#strass)" stroke="#ffffff" stroke-width="0.5" opacity="0.8"/>
  <circle cx="175" cy="252" r="2.5" fill="url(#strass)" stroke="#ffffff" stroke-width="0.5" opacity="0.8"/>
  <circle cx="190" cy="250" r="3" fill="url(#strass)" stroke="#ffffff" stroke-width="0.5" opacity="0.8"/>
  <circle cx="205" cy="250" r="2.5" fill="url(#strass)" stroke="#ffffff" stroke-width="0.5" opacity="0.8"/>
  <circle cx="220" cy="252" r="3" fill="url(#strass)" stroke="#ffffff" stroke-width="0.5" opacity="0.8"/>
  <circle cx="235" cy="255" r="2.5" fill="url(#strass)" stroke="#ffffff" stroke-width="0.5" opacity="0.8"/>
  <circle cx="250" cy="258" r="3" fill="url(#strass)" stroke="#ffffff" stroke-width="0.5" opacity="0.8"/>
  
  <!-- Strass adicionais menores -->
  <circle cx="170" cy="248" r="1.5" fill="url(#strass)" stroke="#ffffff" stroke-width="0.3" opacity="0.6"/>
  <circle cx="185" cy="246" r="1.5" fill="url(#strass)" stroke="#ffffff" stroke-width="0.3" opacity="0.6"/>
  <circle cx="200" cy="246" r="1.5" fill="url(#strass)" stroke="#ffffff" stroke-width="0.3" opacity="0.6"/>
  <circle cx="215" cy="246" r="1.5" fill="url(#strass)" stroke="#ffffff" stroke-width="0.3" opacity="0.6"/>
  <circle cx="230" cy="248" r="1.5" fill="url(#strass)" stroke="#ffffff" stroke-width="0.3" opacity="0.6"/>
  <circle cx="245" cy="251" r="1.5" fill="url(#strass)" stroke="#ffffff" stroke-width="0.3" opacity="0.6"/>
  
  <!-- Brilhos nos strass -->
  <circle cx="190" cy="248" r="1" fill="#ffffff" opacity="0.9"/>
  <circle cx="220" cy="250" r="1" fill="#ffffff" opacity="0.9"/>
  <circle cx="250" cy="256" r="1" fill="#ffffff" opacity="0.9"/>
</svg>